<svg width="128" height="129" viewBox="0 0 128 129" fill="none" xmlns="http://www.w3.org/2000/svg">
<g id="Button/Chevron Next">
<g id="Ellipse 1" filter="url(#filter0_d_134_138)">
<ellipse cx="64" cy="40.1885" rx="32" ry="31.9847" fill="white"/>
</g>
<g id="Icons/Next">
<path id="Vector" d="M68.5083 39.7319L59.415 48.8209C59.0617 49.1999 58.8694 49.7011 58.8785 50.219C58.8877 50.7368 59.0976 51.231 59.464 51.5972C59.8305 51.9635 60.3248 52.1733 60.843 52.1824C61.3611 52.1916 61.8625 51.9993 62.2417 51.6462L71.575 42.3173L72.1083 41.7843L72.7483 41.1446C73.1229 40.7697 73.3333 40.2617 73.3333 39.7319C73.3333 39.2022 73.1229 38.6941 72.7483 38.3192L62.2417 27.8176C61.8625 27.4645 61.3611 27.2722 60.8429 27.2814C60.3248 27.2905 59.8305 27.5003 59.464 27.8666C59.0976 28.2328 58.8877 28.727 58.8785 29.2448C58.8694 29.7627 59.0617 30.264 59.415 30.6429L68.5083 39.7319Z" fill="#3B3B3B" fill-opacity="0.98"/>
</g>
</g>
<defs>
<filter id="filter0_d_134_138" x="0" y="0.203735" width="128" height="127.969" filterUnits="userSpaceOnUse" color-interpolation-filters="sRGB">
<feFlood flood-opacity="0" result="BackgroundImageFix"/>
<feColorMatrix in="SourceAlpha" type="matrix" values="0 0 0 0 0 0 0 0 0 0 0 0 0 0 0 0 0 0 127 0" result="hardAlpha"/>
<feOffset dy="24"/>
<feGaussianBlur stdDeviation="16"/>
<feColorMatrix type="matrix" values="0 0 0 0 0.231373 0 0 0 0 0.231373 0 0 0 0 0.231373 0 0 0 0.12 0"/>
<feBlend mode="normal" in2="BackgroundImageFix" result="effect1_dropShadow_134_138"/>
<feBlend mode="normal" in="SourceGraphic" in2="effect1_dropShadow_134_138" result="shape"/>
</filter>
</defs>
</svg>
