<svg width="33" height="33" viewBox="0 0 33 33" fill="none" xmlns="http://www.w3.org/2000/svg">
<g id="Icons/Next">
<path id="Vector" d="M19.8426 15.6255L10.7492 24.7188C10.396 25.098 10.2036 25.5994 10.2128 26.1176C10.2219 26.6357 10.4318 27.1301 10.7982 27.4965C11.1647 27.8629 11.659 28.0728 12.1772 28.082C12.6953 28.0911 13.1968 27.8988 13.5759 27.5455L22.9092 18.2122L23.4426 17.6788L24.0826 17.0388C24.4571 16.6638 24.6675 16.1555 24.6675 15.6255C24.6675 15.0955 24.4571 14.5872 24.0826 14.2122L13.5759 3.7055C13.1968 3.35222 12.6953 3.15989 12.1772 3.16903C11.659 3.17817 11.1647 3.38807 10.7982 3.75451C10.4318 4.12094 10.2219 4.6153 10.2128 5.13344C10.2036 5.65157 10.396 6.15303 10.7492 6.53216L19.8426 15.6255Z" fill="#7BC0E3"/>
</g>
</svg>
