<svg width="33" height="33" viewBox="0 0 33 33" fill="none" xmlns="http://www.w3.org/2000/svg">
<g id="Icons/Next">
<path id="Vector" d="M13.1574 16.5391L22.2508 7.44572C22.604 7.06659 22.7964 6.56513 22.7872 6.04699C22.7781 5.52886 22.5682 5.0345 22.2018 4.66806C21.8353 4.30163 21.341 4.09173 20.8228 4.08259C20.3047 4.07345 19.8032 4.26577 19.4241 4.61905L10.0908 13.9524L9.55743 14.4857L8.91743 15.1257C8.54289 15.5007 8.33252 16.0091 8.33252 16.5391C8.33252 17.0691 8.54289 17.5774 8.91743 17.9524L19.4241 28.4591C19.8032 28.8123 20.3047 29.0047 20.8228 28.9955C21.341 28.9864 21.8353 28.7765 22.2018 28.41C22.5682 28.0436 22.7781 27.5492 22.7872 27.0311C22.7964 26.513 22.604 26.0115 22.2508 25.6324L13.1574 16.5391Z" fill="#7BC0E3"/>
</g>
</svg>
